<?xml version="1.0" standalone="no"?>
<!DOCTYPE svg PUBLIC "-//W3C//DTD SVG 20010904//EN"
 "http://www.w3.org/TR/2001/REC-SVG-20010904/DTD/svg10.dtd">
<svg version="1.0" xmlns="http://www.w3.org/2000/svg"
 width="1024.000000pt" height="1024.000000pt" viewBox="0 0 1024.000000 1024.000000"
 preserveAspectRatio="xMidYMid meet">
<metadata>
Created by potrace 1.11, written by Peter Selinger 2001-2013
</metadata>
<g transform="translate(0.000000,1024.000000) scale(0.100000,-0.100000)"
fill="#000000" stroke="none">
<path d="M1510 10233 c-205 -13 -436 -59 -597 -119 -515 -192 -793 -571 -890
-1209 -17 -114 -18 -297 -18 -3785 0 -3492 1 -3671 18 -3785 37 -243 88 -415
172 -580 212 -418 576 -650 1146 -732 117 -17 331 -18 3779 -18 3448 0 3662 1
3779 18 341 49 608 152 809 313 281 224 439 535 509 999 17 114 18 297 18
3785 0 3488 -1 3671 -18 3785 -64 421 -204 722 -434 935 -221 203 -484 316
-882 378 -97 15 -422 16 -3721 17 -1988 1 -3640 0 -3670 -2z m2266 -893 c427
-104 818 -356 1070 -691 97 -128 137 -193 204 -328 96 -194 144 -356 171 -575
11 -96 8 -264 -7 -287 -5 -9 -44 -10 -138 -6 -174 8 -258 26 -421 90 -366 142
-768 532 -973 942 -65 131 -140 374 -156 500 -12 107 -18 259 -11 320 l7 68
82 -6 c45 -3 123 -16 172 -27z m149 -1900 c22 -5 57 -11 77 -14 126 -19 325
-78 618 -184 294 -105 451 -153 525 -159 91 -8 228 30 635 177 357 129 561
175 770 175 559 0 1122 -262 1497 -696 248 -287 417 -618 509 -998 62 -255 77
-401 77 -741 1 -276 -6 -392 -34 -565 -5 -33 -11 -73 -13 -90 -3 -30 -11 -70
-48 -245 -129 -611 -417 -1285 -756 -1770 -374 -535 -656 -825 -937 -965 -143
-71 -237 -95 -381 -95 -189 0 -373 44 -659 158 -99 39 -249 90 -292 98 -12 2
-34 9 -48 14 -14 5 -25 7 -25 5 0 -2 -12 0 -26 5 -87 34 -422 52 -550 30 -201
-34 -302 -62 -519 -145 -278 -105 -375 -132 -571 -154 -230 -27 -496 53 -709
215 -212 160 -462 451 -724 842 -178 266 -333 564 -445 852 -37 96 -72 185
-77 198 -5 13 -9 29 -9 36 0 7 46 35 103 64 364 182 672 488 840 835 80 163
124 309 158 517 17 108 14 444 -5 560 -62 373 -201 646 -465 911 -117 116
-202 186 -333 273 l-88 58 47 61 c59 80 230 254 313 321 225 181 509 311 820
376 140 29 245 46 350 54 69 6 329 -4 375 -14z"/>
<path d="M4540 4129 c-375 -39 -789 -162 -1117 -333 l-66 -35 44 -11 c61 -17
192 -7 319 23 58 14 137 28 175 32 39 4 148 27 244 51 95 25 201 47 233 51
l60 6 -16 -32 c-23 -44 -35 -197 -36 -452 -1 -608 94 -1037 302 -1361 91 -141
202 -215 363 -239 73 -10 96 -10 165 4 96 18 189 61 246 111 57 49 186 246
249 381 122 257 196 575 225 970 6 77 15 190 21 250 6 61 12 171 13 246 l1
137 45 5 c64 7 216 -10 350 -39 142 -32 426 -125 584 -193 66 -28 122 -49 124
-47 7 8 -29 67 -65 107 -51 56 -124 90 -320 148 -439 131 -805 189 -1383 221
-209 12 -641 11 -760 -1z m356 -129 c131 -23 225 -76 254 -144 29 -66 32 -141
15 -316 -9 -90 -14 -173 -11 -184 5 -19 -16 -719 -29 -971 l-6 -109 25 23 c13
13 35 46 48 74 21 48 23 66 25 252 1 110 6 241 12 290 6 50 11 227 11 395 1
461 21 573 118 643 34 25 55 32 106 35 157 10 309 -132 362 -338 15 -58 16
-87 5 -270 -23 -409 -84 -674 -221 -955 -118 -242 -234 -391 -343 -441 -73
-33 -190 -44 -265 -24 -140 38 -231 121 -310 284 -90 184 -122 284 -148 476
-20 141 -31 885 -16 1025 12 106 33 188 55 219 26 35 200 55 313 36z"/>
<path d="M3061 3920 c-14 -42 -14 -233 0 -302 26 -125 128 -276 218 -322 54
-29 159 -46 279 -46 147 0 191 20 115 53 -54 23 -95 34 -212 57 -210 42 -230
67 -326 406 -23 83 -47 159 -52 169 -9 15 -12 13 -22 -15z"/>
<path d="M7406 3873 c-4 -14 -4 -94 0 -177 7 -174 -1 -220 -51 -281 -46 -57
-116 -92 -243 -120 -61 -13 -127 -31 -148 -40 l-38 -16 25 -17 c39 -27 196
-29 301 -3 102 26 153 60 196 131 59 100 74 200 48 330 -18 85 -65 220 -77
220 -4 0 -10 -12 -13 -27z"/>
</g>
</svg>
